<svg xmlns="http://www.w3.org/2000/svg" width="300" height="300" fill="none" viewBox="0 0 300 300"><path fill="url(#paint0_linear_2_21)" d="M149.732 218.454L47 115.732L149.732 13L252.465 115.732L149.732 218.454Z"/><path fill="url(#paint1_linear_2_21)" stroke="#FFBC00" stroke-width="2" d="M49.3694 149.686L48.5803 150.475L49.3694 151.264L148.943 250.838L149.732 251.627L150.521 250.838L250.095 151.264L250.884 150.475L250.095 149.686L150.521 50.112L149.732 49.3229L148.943 50.112L49.3694 149.686Z"/><path fill="url(#paint2_linear_2_21)" d="M149.732 294.401L47 191.668L149.732 88.9471L252.465 191.668L149.732 294.401Z"/><defs><linearGradient id="paint0_linear_2_21" x1="47.638" x2="47.638" y1="14.28" y2="218.458" gradientUnits="userSpaceOnUse"><stop stop-color="#333" stop-opacity=".7"/><stop offset="1" stop-opacity=".01"/></linearGradient><linearGradient id="paint1_linear_2_21" x1="50.163" x2="50.163" y1="50.904" y2="250.046" gradientUnits="userSpaceOnUse"><stop offset=".006" stop-color="#333" stop-opacity=".6"/><stop offset="1" stop-opacity=".8"/></linearGradient><linearGradient id="paint2_linear_2_21" x1="47.636" x2="47.636" y1="90.217" y2="294.398" gradientUnits="userSpaceOnUse"><stop stop-color="#333" stop-opacity=".6"/><stop offset="1"/></linearGradient></defs></svg>